<svg xmlns="http://www.w3.org/2000/svg" width="420" height="420" viewBox="0 0 420 420" role="img">

  <defs>
    <filter id="softShadow" x="-25%" y="-25%" width="150%" height="160%">
      <feDropShadow dx="0" dy="8" stdDeviation="5" flood-color="#000000" flood-opacity=".32"/>
    </filter>
    <linearGradient id="inkWash" x1="0" x2="0" y1="0" y2="1">
      <stop offset="0" stop-color="#fff7e5"/>
      <stop offset=".58" stop-color="#f2dfbd"/>
      <stop offset="1" stop-color="#d7bb88"/>
    </linearGradient>
    <linearGradient id="robe" x1="0" x2="1" y1="0" y2="1">
      <stop offset="0" stop-color="#4c4036"/>
      <stop offset=".56" stop-color="#1d1a18"/>
      <stop offset="1" stop-color="#0c0b0b"/>
    </linearGradient>
    <linearGradient id="metal" x1="0" x2="1" y1="0" y2="1">
      <stop offset="0" stop-color="#b9b5a8"/>
      <stop offset=".42" stop-color="#5f6563"/>
      <stop offset="1" stop-color="#15191a"/>
    </linearGradient>
    <radialGradient id="aura" cx="50%" cy="44%" r="60%">
      <stop offset="0" stop-color="#8b3430" stop-opacity=".30"/>
      <stop offset="1" stop-color="#8b3430" stop-opacity="0"/>
    </radialGradient>
  </defs>
<path d="M25 400 C72 412 350 412 395 400" fill="#000" opacity=".24"/>
<g filter="url(#softShadow)">

    <path d="M42 66 C83 33 151 31 195 66 C170 41 71 41 42 66 Z" fill="url(#aura)"/>
    <path d="M57 232 L69 84 L96 49 L129 66 L158 47 L184 86 L169 235 L118 252 Z" fill="#20262c"/>
    <path d="M77 230 L88 95 L113 65 L139 95 L151 230 L116 251 Z" fill="#1b1a17" opacity="0.72"/>
    
    <path d="M92 217 L77 252 M138 217 L157 252" stroke="#151414" stroke-width="15" stroke-linecap="round"/>
    <path d="M61 238 L78 82 L118 49 L164 70 L202 56 L232 90 L214 302 L121 326 Z" fill="#20262c"/><path d="M83 102 L193 103 L184 204 L91 203 Z" fill="url(#metal)"/><path d="M118 45 C141 22 177 28 193 53 L176 78 L135 75 Z" fill="#090909" stroke="#8b3430" stroke-width="5"/><path d="M63 93 L17 300 L106 265 Z" fill="#5d2228"/><path d="M210 49 L259 319" stroke="#8b3430" stroke-width="10" stroke-linecap="round"/>
    <path d="M87 95 C132 63 181 67 217 101" fill="none" stroke="#8b3430" stroke-width="3" opacity=".22"/>
  
</g>
<path d="M33 410 C78 418 340 418 387 410" fill="none" stroke="#b88935" stroke-width="1.8" opacity=".18"/>
</svg>