<svg xmlns="http://www.w3.org/2000/svg" width="220" height="260" viewBox="0 0 220 260" role="img">

  <defs>
    <filter id="softShadow" x="-25%" y="-25%" width="150%" height="160%">
      <feDropShadow dx="0" dy="8" stdDeviation="5" flood-color="#000000" flood-opacity=".32"/>
    </filter>
    <linearGradient id="inkWash" x1="0" x2="0" y1="0" y2="1">
      <stop offset="0" stop-color="#fff7e5"/>
      <stop offset=".58" stop-color="#f2dfbd"/>
      <stop offset="1" stop-color="#d7bb88"/>
    </linearGradient>
    <linearGradient id="robe" x1="0" x2="1" y1="0" y2="1">
      <stop offset="0" stop-color="#4c4036"/>
      <stop offset=".56" stop-color="#1d1a18"/>
      <stop offset="1" stop-color="#0c0b0b"/>
    </linearGradient>
    <linearGradient id="metal" x1="0" x2="1" y1="0" y2="1">
      <stop offset="0" stop-color="#b9b5a8"/>
      <stop offset=".42" stop-color="#5f6563"/>
      <stop offset="1" stop-color="#15191a"/>
    </linearGradient>
    <radialGradient id="aura" cx="50%" cy="44%" r="60%">
      <stop offset="0" stop-color="#8b3430" stop-opacity=".30"/>
      <stop offset="1" stop-color="#8b3430" stop-opacity="0"/>
    </radialGradient>
  </defs>
<path d="M25 240 C72 252 150 252 195 240" fill="#000" opacity=".24"/>
<g filter="url(#softShadow)">

      <path d="M33 176 C62 128 145 121 187 153 C197 170 182 192 136 192 L78 193 C45 194 25 190 33 176 Z" fill="#141414"/>
      <path d="M145 128 C161 105 188 112 197 136 C184 135 174 137 163 146 Z" fill="#141414"/>
      <path d="M158 118 L171 85 L180 124 Z M183 123 L207 94 L198 139 Z" fill="#141414"/>
      <path d="M49 178 L31 235 M89 187 L78 241 M137 187 L146 241 M174 177 L196 235" stroke="#0b0b0b" stroke-width="12" stroke-linecap="round"/>
      <path d="M190 143 L216 150 L190 159 Z" fill="#8b3430"/>
      <path d="M38 162 C25 132 13 119 4 111" stroke="#0c0c0c" stroke-width="9" stroke-linecap="round"/>
      <path d="M64 147 C103 133 143 136 169 151" fill="none" stroke="#807b67" stroke-width="3" stroke-linecap="round" opacity="0.28"/>
    
</g>
<path d="M33 250 C78 258 140 258 187 250" fill="none" stroke="#b88935" stroke-width="1.8" opacity=".18"/>
</svg>