<svg xmlns="http://www.w3.org/2000/svg" width="220" height="260" viewBox="0 0 220 260" role="img">
<defs>
<filter id="softShadow" x="-20%" y="-20%" width="140%" height="150%"><feDropShadow dx="0" dy="8" stdDeviation="6" flood-color="#000000" flood-opacity="0.45"/></filter>
<filter id="glowGold" x="-30%" y="-30%" width="160%" height="160%"><feDropShadow dx="0" dy="0" stdDeviation="5" flood-color="#f2c86d" flood-opacity="0.65"/></filter>
<filter id="greenGlow" x="-30%" y="-30%" width="160%" height="160%"><feDropShadow dx="0" dy="0" stdDeviation="6" flood-color="#5f9f62" flood-opacity="0.7"/></filter>
<linearGradient id="metal" x1="0" x2="1" y1="0" y2="1"><stop offset="0" stop-color="#66777b"/><stop offset="0.45" stop-color="#20282a"/><stop offset="1" stop-color="#0a0d0f"/></linearGradient>
<linearGradient id="paper" x1="0" x2="0" y1="0" y2="1"><stop offset="0" stop-color="#ead39b"/><stop offset="1" stop-color="#b98e4f"/></linearGradient>
<radialGradient id="warmGlow" cx="50%" cy="40%" r="55%"><stop offset="0" stop-color="#f2c86d" stop-opacity=".42"/><stop offset="1" stop-color="#f2c86d" stop-opacity="0"/></radialGradient>
<radialGradient id="poisonGlow" cx="50%" cy="45%" r="55%"><stop offset="0" stop-color="#5f9f62" stop-opacity=".42"/><stop offset="1" stop-color="#5f9f62" stop-opacity="0"/></radialGradient>
</defs>
<ellipse cx="110" cy="235" rx="78" ry="14" fill="#000" opacity=".34"/>
<g filter="url(#softShadow)">
<rect x="87" y="151" width="22" height="84" fill="#282522"/><rect x="123" y="149" width="22" height="86" fill="#282522"/>
<path d="M73 77 L151 72 L164 151 L61 154Z" fill="#4a4238"/><path d="M73 107 L157 107" stroke="#8a6133" stroke-width="11"/>
<circle cx="112" cy="48" r="24" fill="#9b6b37"/><path d="M77 32 L145 32 L137 50 L85 50Z" fill="#2a2c2d"/><path d="M88 29 L72 18 L105 32Z" fill="#555"/>
<rect x="38" y="102" width="48" height="82" rx="8" fill="#2e3540" stroke="#b88935" stroke-width="2"/>
<path d="M170 20 L184 232" stroke="#8b724c" stroke-width="7"/><path d="M174 9 L190 25 L171 28Z" fill="#8b724c"/>
<path d="M61 82 L41 156 M160 80 L187 153" stroke="#4a4238" stroke-width="14"/>
</g>
<path d="M58 248 C86 258 134 258 162 248" stroke="#b88935" stroke-width="2" opacity=".18" fill="none"/>
</svg>