<svg xmlns="http://www.w3.org/2000/svg" width="220" height="260" viewBox="0 0 220 260" role="img">

  <defs>
    <filter id="softShadow" x="-25%" y="-25%" width="150%" height="160%">
      <feDropShadow dx="0" dy="8" stdDeviation="5" flood-color="#000000" flood-opacity=".32"/>
    </filter>
    <linearGradient id="inkWash" x1="0" x2="0" y1="0" y2="1">
      <stop offset="0" stop-color="#fff7e5"/>
      <stop offset=".58" stop-color="#f2dfbd"/>
      <stop offset="1" stop-color="#d7bb88"/>
    </linearGradient>
    <linearGradient id="robe" x1="0" x2="1" y1="0" y2="1">
      <stop offset="0" stop-color="#4c4036"/>
      <stop offset=".56" stop-color="#1d1a18"/>
      <stop offset="1" stop-color="#0c0b0b"/>
    </linearGradient>
    <linearGradient id="metal" x1="0" x2="1" y1="0" y2="1">
      <stop offset="0" stop-color="#b9b5a8"/>
      <stop offset=".42" stop-color="#5f6563"/>
      <stop offset="1" stop-color="#15191a"/>
    </linearGradient>
    <radialGradient id="aura" cx="50%" cy="44%" r="60%">
      <stop offset="0" stop-color="#c66b38" stop-opacity=".30"/>
      <stop offset="1" stop-color="#c66b38" stop-opacity="0"/>
    </radialGradient>
  </defs>
<path d="M25 240 C72 252 150 252 195 240" fill="#000" opacity=".24"/>
<g filter="url(#softShadow)">

    <path d="M42 66 C83 33 151 31 195 66 C170 41 71 41 42 66 Z" fill="url(#aura)"/>
    <path d="M57 232 L69 84 L96 49 L129 66 L158 47 L184 86 L169 235 L118 252 Z" fill="#2d241e"/>
    <path d="M77 230 L88 95 L113 65 L139 95 L151 230 L116 251 Z" fill="#1b1a17" opacity="0.72"/>
    <path d="M88 38 C112 17 145 20 162 44 C156 74 96 76 88 38 Z" fill="#d2bea0"/>
    <path d="M92 217 L77 252 M138 217 L157 252" stroke="#151414" stroke-width="15" stroke-linecap="round"/>
    <path d="M83 84 C103 105 132 105 152 84" stroke="#c66b38" stroke-width="5" fill="none"/><path d="M167 74 L167 229" stroke="#c66b38" stroke-width="5"/><path d="M154 76 L180 76" stroke="#c66b38" stroke-width="4"/><path d="M167 45 C154 68 181 68 167 45 Z" fill="#c66b38"/>
    <path d="M84 90 C106 111 135 108 152 86" fill="none" stroke="#c66b38" stroke-width="3" opacity=".22"/>
  
</g>
<path d="M33 250 C78 258 140 258 187 250" fill="none" stroke="#b88935" stroke-width="1.8" opacity=".18"/>
</svg>