<svg xmlns="http://www.w3.org/2000/svg" width="220" height="260" viewBox="0 0 220 260" role="img">
<defs>
<filter id="softShadow" x="-20%" y="-20%" width="140%" height="150%"><feDropShadow dx="0" dy="8" stdDeviation="6" flood-color="#000000" flood-opacity="0.45"/></filter>
<filter id="glowGold" x="-30%" y="-30%" width="160%" height="160%"><feDropShadow dx="0" dy="0" stdDeviation="5" flood-color="#f2c86d" flood-opacity="0.65"/></filter>
<filter id="greenGlow" x="-30%" y="-30%" width="160%" height="160%"><feDropShadow dx="0" dy="0" stdDeviation="6" flood-color="#5f9f62" flood-opacity="0.7"/></filter>
<linearGradient id="metal" x1="0" x2="1" y1="0" y2="1"><stop offset="0" stop-color="#66777b"/><stop offset="0.45" stop-color="#20282a"/><stop offset="1" stop-color="#0a0d0f"/></linearGradient>
<linearGradient id="paper" x1="0" x2="0" y1="0" y2="1"><stop offset="0" stop-color="#ead39b"/><stop offset="1" stop-color="#b98e4f"/></linearGradient>
<radialGradient id="warmGlow" cx="50%" cy="40%" r="55%"><stop offset="0" stop-color="#f2c86d" stop-opacity=".42"/><stop offset="1" stop-color="#f2c86d" stop-opacity="0"/></radialGradient>
<radialGradient id="poisonGlow" cx="50%" cy="45%" r="55%"><stop offset="0" stop-color="#5f9f62" stop-opacity=".42"/><stop offset="1" stop-color="#5f9f62" stop-opacity="0"/></radialGradient>
</defs>
<ellipse cx="110" cy="235" rx="78" ry="14" fill="#000" opacity=".34"/>
<g filter="url(#softShadow)">
<circle cx="110" cy="45" r="26" fill="#d2c294"/><circle cx="99" cy="40" r="7" fill="#0b0b0b"/><circle cx="121" cy="40" r="7" fill="#0b0b0b"/>
<circle cx="99" cy="40" r="3" fill="#2f6484"/><circle cx="121" cy="40" r="3" fill="#2f6484"/>
<path d="M96 61 L124 61" stroke="#0b0b0b" stroke-width="5"/>
<path d="M75 89 L145 89 M81 108 L139 108 M89 127 L131 127" stroke="#d2c294" stroke-width="7"/>
<path d="M94 78 L81 169 M126 78 L140 170" stroke="#d2c294" stroke-width="7"/>
<path d="M76 88 L49 160 M146 90 L178 158" stroke="#d2c294" stroke-width="7"/>
<path d="M85 169 L63 232 M136 169 L156 232" stroke="#d2c294" stroke-width="7"/>
<path d="M40 77 L170 188" stroke="#9a723f" stroke-width="6"/><path d="M38 75 L172 189" stroke="#ead7a1" stroke-width="2"/>
<rect x="157" y="125" width="37" height="56" rx="7" fill="#2e3540" stroke="#b88935" stroke-width="2"/>
</g>
<path d="M58 248 C86 258 134 258 162 248" stroke="#b88935" stroke-width="2" opacity=".18" fill="none"/>
</svg>