<svg xmlns="http://www.w3.org/2000/svg" width="220" height="260" viewBox="0 0 220 260" role="img">

  <defs>
    <filter id="softShadow" x="-25%" y="-25%" width="150%" height="160%">
      <feDropShadow dx="0" dy="8" stdDeviation="5" flood-color="#000000" flood-opacity=".32"/>
    </filter>
    <linearGradient id="inkWash" x1="0" x2="0" y1="0" y2="1">
      <stop offset="0" stop-color="#fff7e5"/>
      <stop offset=".58" stop-color="#f2dfbd"/>
      <stop offset="1" stop-color="#d7bb88"/>
    </linearGradient>
    <linearGradient id="robe" x1="0" x2="1" y1="0" y2="1">
      <stop offset="0" stop-color="#4c4036"/>
      <stop offset=".56" stop-color="#1d1a18"/>
      <stop offset="1" stop-color="#0c0b0b"/>
    </linearGradient>
    <linearGradient id="metal" x1="0" x2="1" y1="0" y2="1">
      <stop offset="0" stop-color="#b9b5a8"/>
      <stop offset=".42" stop-color="#5f6563"/>
      <stop offset="1" stop-color="#15191a"/>
    </linearGradient>
    <radialGradient id="aura" cx="50%" cy="44%" r="60%">
      <stop offset="0" stop-color="#4c4f4a" stop-opacity=".30"/>
      <stop offset="1" stop-color="#4c4f4a" stop-opacity="0"/>
    </radialGradient>
  </defs>
<path d="M25 240 C72 252 150 252 195 240" fill="#000" opacity=".24"/>
<g filter="url(#softShadow)">

    <path d="M42 66 C83 33 151 31 195 66 C170 41 71 41 42 66 Z" fill="url(#aura)"/>
    <path d="M57 232 L69 84 L96 49 L129 66 L158 47 L184 86 L169 235 L118 252 Z" fill="#d8c596"/>
    <path d="M77 230 L88 95 L113 65 L139 95 L151 230 L116 251 Z" fill="none" opacity="0"/>
    <path d="M87 51 C105 28 139 29 155 53 L146 80 L96 80 Z" fill="#d8c596"/><path d="M101 57 L111 57 M131 57 L141 57" stroke="#17110d" stroke-width="7" stroke-linecap="round"/><path d="M105 75 L137 75" stroke="#17110d" stroke-width="4"/>
    <path d="M92 217 L77 252 M138 217 L157 252" stroke="#151414" stroke-width="15" stroke-linecap="round"/>
    <path d="M78 98 L151 98 M84 116 L143 116 M92 135 L135 135" stroke="#d8c596" stroke-width="7" stroke-linecap="round"/><path d="M113 98 L103 196 M124 98 L136 196" stroke="#d8c596" stroke-width="6" stroke-linecap="round"/><path d="M161 80 L190 238" stroke="#6d5639" stroke-width="7" stroke-linecap="round"/><path d="M188 70 L196 102 L173 92 Z" fill="#4c4f4a"/>
    <path d="M77 102 L151 102" fill="none" stroke="#4c4f4a" stroke-width="3" opacity=".22"/>
  
</g>
<path d="M33 250 C78 258 140 258 187 250" fill="none" stroke="#b88935" stroke-width="1.8" opacity=".18"/>
</svg>