<svg xmlns="http://www.w3.org/2000/svg" width="220" height="260" viewBox="0 0 220 260" role="img">
<defs>
<filter id="softShadow" x="-20%" y="-20%" width="140%" height="150%"><feDropShadow dx="0" dy="8" stdDeviation="6" flood-color="#000000" flood-opacity="0.45"/></filter>
<filter id="glowGold" x="-30%" y="-30%" width="160%" height="160%"><feDropShadow dx="0" dy="0" stdDeviation="5" flood-color="#f2c86d" flood-opacity="0.65"/></filter>
<filter id="greenGlow" x="-30%" y="-30%" width="160%" height="160%"><feDropShadow dx="0" dy="0" stdDeviation="6" flood-color="#5f9f62" flood-opacity="0.7"/></filter>
<linearGradient id="metal" x1="0" x2="1" y1="0" y2="1"><stop offset="0" stop-color="#66777b"/><stop offset="0.45" stop-color="#20282a"/><stop offset="1" stop-color="#0a0d0f"/></linearGradient>
<linearGradient id="paper" x1="0" x2="0" y1="0" y2="1"><stop offset="0" stop-color="#ead39b"/><stop offset="1" stop-color="#b98e4f"/></linearGradient>
<radialGradient id="warmGlow" cx="50%" cy="40%" r="55%"><stop offset="0" stop-color="#f2c86d" stop-opacity=".42"/><stop offset="1" stop-color="#f2c86d" stop-opacity="0"/></radialGradient>
<radialGradient id="poisonGlow" cx="50%" cy="45%" r="55%"><stop offset="0" stop-color="#5f9f62" stop-opacity=".42"/><stop offset="1" stop-color="#5f9f62" stop-opacity="0"/></radialGradient>
</defs>
<ellipse cx="110" cy="235" rx="78" ry="14" fill="#000" opacity=".34"/>
<g filter="url(#softShadow)">
<ellipse cx="38" cy="155" rx="26" ry="14" fill="#22221c"/><path d="M56 150 L80 143 L62 157Z" fill="#22221c"/><circle cx="47" cy="151" r="3" fill="#9e302b"/><path d="M18 159 C-7 170 -12 159 -24 169" stroke="#7b4d3f" stroke-width="3" fill="none"/>
<ellipse cx="72" cy="173" rx="26" ry="14" fill="#3a3929"/><path d="M90 168 L114 161 L96 175Z" fill="#3a3929"/><circle cx="81" cy="169" r="3" fill="#9e302b"/><path d="M52 177 C27 188 22 177 10 187" stroke="#7b4d3f" stroke-width="3" fill="none"/>
<ellipse cx="106" cy="155" rx="26" ry="14" fill="#22221c"/><path d="M124 150 L148 143 L130 157Z" fill="#22221c"/><circle cx="115" cy="151" r="3" fill="#9e302b"/><path d="M86 159 C61 170 56 159 44 169" stroke="#7b4d3f" stroke-width="3" fill="none"/>
<ellipse cx="140" cy="173" rx="26" ry="14" fill="#3a3929"/><path d="M158 168 L182 161 L164 175Z" fill="#3a3929"/><circle cx="149" cy="169" r="3" fill="#9e302b"/><path d="M120 177 C95 188 90 177 78 187" stroke="#7b4d3f" stroke-width="3" fill="none"/>
<ellipse cx="174" cy="155" rx="26" ry="14" fill="#22221c"/><path d="M192 150 L216 143 L198 157Z" fill="#22221c"/><circle cx="183" cy="151" r="3" fill="#9e302b"/><path d="M154 159 C129 170 124 159 112 169" stroke="#7b4d3f" stroke-width="3" fill="none"/>
<circle cx="105" cy="142" r="50" fill="#5f9f62" opacity=".09"/>
</g>
<path d="M58 248 C86 258 134 258 162 248" stroke="#b88935" stroke-width="2" opacity=".18" fill="none"/>
</svg>