<svg xmlns="http://www.w3.org/2000/svg" width="220" height="260" viewBox="0 0 220 260" role="img">
<defs>
<filter id="softShadow" x="-20%" y="-20%" width="140%" height="150%"><feDropShadow dx="0" dy="8" stdDeviation="6" flood-color="#000000" flood-opacity="0.45"/></filter>
<filter id="glowGold" x="-30%" y="-30%" width="160%" height="160%"><feDropShadow dx="0" dy="0" stdDeviation="5" flood-color="#f2c86d" flood-opacity="0.65"/></filter>
<filter id="greenGlow" x="-30%" y="-30%" width="160%" height="160%"><feDropShadow dx="0" dy="0" stdDeviation="6" flood-color="#5f9f62" flood-opacity="0.7"/></filter>
<linearGradient id="metal" x1="0" x2="1" y1="0" y2="1"><stop offset="0" stop-color="#66777b"/><stop offset="0.45" stop-color="#20282a"/><stop offset="1" stop-color="#0a0d0f"/></linearGradient>
<linearGradient id="paper" x1="0" x2="0" y1="0" y2="1"><stop offset="0" stop-color="#ead39b"/><stop offset="1" stop-color="#b98e4f"/></linearGradient>
<radialGradient id="warmGlow" cx="50%" cy="40%" r="55%"><stop offset="0" stop-color="#f2c86d" stop-opacity=".42"/><stop offset="1" stop-color="#f2c86d" stop-opacity="0"/></radialGradient>
<radialGradient id="poisonGlow" cx="50%" cy="45%" r="55%"><stop offset="0" stop-color="#5f9f62" stop-opacity=".42"/><stop offset="1" stop-color="#5f9f62" stop-opacity="0"/></radialGradient>
</defs>
<ellipse cx="110" cy="235" rx="78" ry="14" fill="#000" opacity=".34"/>
<g filter="url(#softShadow)">
<path d="M108 83 L18 134 L93 145Z" fill="#090911"/><path d="M118 82 L207 128 L128 146Z" fill="#090911"/>
<ellipse cx="112" cy="125" rx="31" ry="57" fill="#151520"/><circle cx="119" cy="63" r="25" fill="#111119"/>
<path d="M139 63 L197 71 L140 82Z" fill="#b88935"/><circle cx="124" cy="57" r="4" fill="#f2c86d"/>
<path d="M92 164 L61 232 L112 178Z" fill="#090911"/><path d="M131 164 L163 232 L115 178Z" fill="#090911"/>
<rect x="139" y="153" width="42" height="20" rx="3" fill="#6d4a28"/><path d="M141 163 L181 163" stroke="#d8bd8a" stroke-width="2"/>
<path d="M64 113 L92 97 L101 123Z" fill="#1e1e2a"/><path d="M158 99 L185 114 L136 123Z" fill="#1e1e2a"/>
</g>
<path d="M58 248 C86 258 134 258 162 248" stroke="#b88935" stroke-width="2" opacity=".18" fill="none"/>
</svg>