<svg xmlns="http://www.w3.org/2000/svg" width="220" height="260" viewBox="0 0 220 260" role="img">
<defs>
<filter id="softShadow" x="-20%" y="-20%" width="140%" height="150%"><feDropShadow dx="0" dy="8" stdDeviation="6" flood-color="#000000" flood-opacity="0.45"/></filter>
<filter id="glowGold" x="-30%" y="-30%" width="160%" height="160%"><feDropShadow dx="0" dy="0" stdDeviation="5" flood-color="#f2c86d" flood-opacity="0.65"/></filter>
<filter id="greenGlow" x="-30%" y="-30%" width="160%" height="160%"><feDropShadow dx="0" dy="0" stdDeviation="6" flood-color="#5f9f62" flood-opacity="0.7"/></filter>
<linearGradient id="metal" x1="0" x2="1" y1="0" y2="1"><stop offset="0" stop-color="#66777b"/><stop offset="0.45" stop-color="#20282a"/><stop offset="1" stop-color="#0a0d0f"/></linearGradient>
<linearGradient id="paper" x1="0" x2="0" y1="0" y2="1"><stop offset="0" stop-color="#ead39b"/><stop offset="1" stop-color="#b98e4f"/></linearGradient>
<radialGradient id="warmGlow" cx="50%" cy="40%" r="55%"><stop offset="0" stop-color="#f2c86d" stop-opacity=".42"/><stop offset="1" stop-color="#f2c86d" stop-opacity="0"/></radialGradient>
<radialGradient id="poisonGlow" cx="50%" cy="45%" r="55%"><stop offset="0" stop-color="#5f9f62" stop-opacity=".42"/><stop offset="1" stop-color="#5f9f62" stop-opacity="0"/></radialGradient>
</defs>
<ellipse cx="110" cy="235" rx="78" ry="14" fill="#000" opacity=".34"/>
<g filter="url(#softShadow)">
<path d="M75 88 C82 62 119 54 139 78 L147 151 L66 159Z" fill="#506144"/>
<circle cx="112" cy="55" r="24" fill="#6b7b5c"/><circle cx="103" cy="51" r="4" fill="#141712"/><circle cx="122" cy="52" r="4" fill="#9e302b"/>
<path d="M69 91 L38 174 L59 183 L83 110Z" fill="#5f4637"/><path d="M144 96 L181 177 L160 186 L131 113Z" fill="#5f4637"/>
<path d="M76 154 L61 232 L87 232 L102 158Z" fill="#1e2b24"/><path d="M128 154 L140 232 L166 232 L149 157Z" fill="#1e2b24"/>
<path d="M41 82 L72 110 L52 132Z" fill="#3e332a"/><path d="M132 126 L154 126 L153 139 L129 139Z" fill="#9e302b"/>
<path d="M171 105 L197 204" stroke="#856139" stroke-width="7"/><path d="M196 202 L208 221" stroke="#d8bd8a" stroke-width="3"/>
<path d="M70 179 C93 190 128 189 151 175" stroke="#2a1710" stroke-width="5" opacity=".45"/>
</g>
<path d="M58 248 C86 258 134 258 162 248" stroke="#b88935" stroke-width="2" opacity=".18" fill="none"/>
</svg>