<svg xmlns="http://www.w3.org/2000/svg" width="220" height="260" viewBox="0 0 220 260" role="img">
<defs>
<filter id="softShadow" x="-20%" y="-20%" width="140%" height="150%"><feDropShadow dx="0" dy="8" stdDeviation="6" flood-color="#000000" flood-opacity="0.45"/></filter>
<filter id="glowGold" x="-30%" y="-30%" width="160%" height="160%"><feDropShadow dx="0" dy="0" stdDeviation="5" flood-color="#f2c86d" flood-opacity="0.65"/></filter>
<filter id="greenGlow" x="-30%" y="-30%" width="160%" height="160%"><feDropShadow dx="0" dy="0" stdDeviation="6" flood-color="#5f9f62" flood-opacity="0.7"/></filter>
<linearGradient id="metal" x1="0" x2="1" y1="0" y2="1"><stop offset="0" stop-color="#66777b"/><stop offset="0.45" stop-color="#20282a"/><stop offset="1" stop-color="#0a0d0f"/></linearGradient>
<linearGradient id="paper" x1="0" x2="0" y1="0" y2="1"><stop offset="0" stop-color="#ead39b"/><stop offset="1" stop-color="#b98e4f"/></linearGradient>
<radialGradient id="warmGlow" cx="50%" cy="40%" r="55%"><stop offset="0" stop-color="#f2c86d" stop-opacity=".42"/><stop offset="1" stop-color="#f2c86d" stop-opacity="0"/></radialGradient>
<radialGradient id="poisonGlow" cx="50%" cy="45%" r="55%"><stop offset="0" stop-color="#5f9f62" stop-opacity=".42"/><stop offset="1" stop-color="#5f9f62" stop-opacity="0"/></radialGradient>
</defs>
<ellipse cx="110" cy="235" rx="78" ry="14" fill="#000" opacity=".34"/>
<g filter="url(#softShadow)">
<path d="M70 235 L112 71 L161 235Z" fill="#2b1438"/><path d="M84 235 L113 111 L145 235Z" fill="#1d1026"/>
<path d="M39 82 L113 5 L188 82Z" fill="#271335"/><rect x="31" y="79" width="166" height="20" rx="8" fill="#321a44"/>
<circle cx="113" cy="94" r="23" fill="#32203d"/><path d="M126 96 L164 108 L128 117Z" fill="#7a5934"/><circle cx="105" cy="91" r="3" fill="#0b0b0b"/>
<path d="M73 129 L38 189 M153 130 L181 196" stroke="#3b2149" stroke-width="17"/>
<circle cx="58" cy="192" r="27" fill="#6e4cb0" opacity=".44"/><circle cx="170" cy="197" r="22" fill="#6e4cb0" opacity=".48"/>
<path d="M177 104 L202 231" stroke="#8b6a42" stroke-width="5"/><circle cx="203" cy="118" r="13" fill="#d08a49"/>
<circle cx="92" cy="162" r="54" fill="#6e4cb0" opacity=".13"/>
</g>
<path d="M58 248 C86 258 134 258 162 248" stroke="#b88935" stroke-width="2" opacity=".18" fill="none"/>
</svg>