<svg xmlns="http://www.w3.org/2000/svg" width="860" height="320" viewBox="0 0 860 320" role="img">

  <defs>
    <filter id="softShadow" x="-25%" y="-25%" width="150%" height="160%">
      <feDropShadow dx="0" dy="8" stdDeviation="5" flood-color="#000000" flood-opacity=".32"/>
    </filter>
    <linearGradient id="inkWash" x1="0" x2="0" y1="0" y2="1">
      <stop offset="0" stop-color="#fff7e5"/>
      <stop offset=".58" stop-color="#f2dfbd"/>
      <stop offset="1" stop-color="#d7bb88"/>
    </linearGradient>
    <linearGradient id="robe" x1="0" x2="1" y1="0" y2="1">
      <stop offset="0" stop-color="#4c4036"/>
      <stop offset=".56" stop-color="#1d1a18"/>
      <stop offset="1" stop-color="#0c0b0b"/>
    </linearGradient>
    <linearGradient id="metal" x1="0" x2="1" y1="0" y2="1">
      <stop offset="0" stop-color="#b9b5a8"/>
      <stop offset=".42" stop-color="#5f6563"/>
      <stop offset="1" stop-color="#15191a"/>
    </linearGradient>
    <radialGradient id="aura" cx="50%" cy="44%" r="60%">
      <stop offset="0" stop-color="#8b3430" stop-opacity=".30"/>
      <stop offset="1" stop-color="#8b3430" stop-opacity="0"/>
    </radialGradient>
  </defs>
<rect width="860" height="320" rx="22" fill="url(#inkWash)"/>
<path d="M24 29 C244 15 582 12 835 28 M31 294 C258 315 598 313 832 292" fill="none" stroke="#6d5639" stroke-width="2" opacity=".42"/>
<path d="M48 53 C230 39 630 40 810 57 L795 268 C594 288 232 286 63 268 Z" fill="#fff4dd" opacity=".28" stroke="#b88935" stroke-width="2"/>

    <g fill="none" stroke-linecap="round" stroke-linejoin="round">
      <path d="M71 231 C166 199 284 201 374 229 C462 258 578 253 676 229 C722 218 771 221 808 237" stroke="#6d5639" stroke-width="3" opacity=".32"/>
      <path d="M84 197 C156 165 252 163 341 186 C432 209 533 210 640 183 C711 165 768 176 815 200" stroke="#6d5639" stroke-width="11" opacity=".10"/>
      <path d="M74 164 C166 126 286 126 391 153 C494 180 587 176 689 142 C740 126 786 132 819 152" stroke="#554639" stroke-width="5" opacity=".21"/>
      <path d="M100 109 C205 78 322 87 429 116 C528 143 636 134 748 96" stroke="#8b3430" stroke-width="2.2" opacity=".22"/>
      <path d="M110 127 C206 98 316 105 414 132 C514 160 620 151 731 115" stroke="#6d5639" stroke-width="1.5" opacity=".25"/>
      <path d="M149 228 L154 139 C174 118 198 117 220 138 L225 226" stroke="#6d5639" stroke-width="3.2" opacity=".64"/>
      <path d="M166 139 C181 122 202 122 217 140 M176 165 C189 158 207 159 219 167 M175 190 C190 184 209 185 222 193" stroke="#6d5639" stroke-width="1.5" opacity=".55"/>
      <path d="M272 228 L280 105 C310 68 359 71 385 109 L392 231" stroke="#6d5639" stroke-width="4" opacity=".68"/>
      <path d="M294 109 C318 82 354 83 379 112 M305 145 C326 133 358 136 380 149 M304 181 C331 166 362 171 384 184" stroke="#6d5639" stroke-width="1.8" opacity=".55"/>
      <path d="M476 238 L505 103 L566 65 L627 109 L650 240" stroke="#6d5639" stroke-width="4.4"/>
      <path d="M536 81 L536 234 M499 144 C534 128 589 130 628 148 M510 180 C541 165 598 167 640 184" stroke="#6d5639" stroke-width="2" opacity=".68"/>
      <path d="M598 85 C634 119 656 161 665 217" stroke="#8b3430" stroke-width="4" opacity=".42"/>
      <path d="M628 91 C661 130 684 174 689 230" stroke="#8b3430" stroke-width="2.3" opacity=".26"/>
      <path d="M143 247 C210 231 286 233 352 250 M494 257 C560 243 639 244 709 257" stroke="#b88935" stroke-width="1.7" opacity=".25"/>
      <path d="M705 220 C725 195 754 193 778 221 M733 213 L734 166 C748 152 766 154 777 169 L780 218" stroke="#6d5639" stroke-width="2.7" opacity=".58"/>
      <path d="M728 106 C751 127 767 152 777 190" stroke="#8b3430" stroke-width="2" opacity=".32"/>
    </g>
  
<text x="74" y="265" font-family="Georgia, 'Microsoft YaHei', serif" font-size="25" fill="#6b4c2f" stroke="#f6e2b9" stroke-width=".8">灰雾逼近</text>
<path d="M70 279 C230 270 430 271 596 278" fill="none" stroke="#8b3430" stroke-width="2" opacity=".45"/>
</svg>