<svg xmlns="http://www.w3.org/2000/svg" width="860" height="320" viewBox="0 0 860 320" role="img">

  <defs>
    <filter id="softShadow" x="-25%" y="-25%" width="150%" height="160%">
      <feDropShadow dx="0" dy="8" stdDeviation="5" flood-color="#000000" flood-opacity=".32"/>
    </filter>
    <linearGradient id="inkWash" x1="0" x2="0" y1="0" y2="1">
      <stop offset="0" stop-color="#fff7e5"/>
      <stop offset=".58" stop-color="#f2dfbd"/>
      <stop offset="1" stop-color="#d7bb88"/>
    </linearGradient>
    <linearGradient id="robe" x1="0" x2="1" y1="0" y2="1">
      <stop offset="0" stop-color="#4c4036"/>
      <stop offset=".56" stop-color="#1d1a18"/>
      <stop offset="1" stop-color="#0c0b0b"/>
    </linearGradient>
    <linearGradient id="metal" x1="0" x2="1" y1="0" y2="1">
      <stop offset="0" stop-color="#b9b5a8"/>
      <stop offset=".42" stop-color="#5f6563"/>
      <stop offset="1" stop-color="#15191a"/>
    </linearGradient>
    <radialGradient id="aura" cx="50%" cy="44%" r="60%">
      <stop offset="0" stop-color="#b88935" stop-opacity=".30"/>
      <stop offset="1" stop-color="#b88935" stop-opacity="0"/>
    </radialGradient>
  </defs>
<rect width="860" height="320" rx="22" fill="url(#inkWash)"/>
<path d="M24 29 C244 15 582 12 835 28 M31 294 C258 315 598 313 832 292" fill="none" stroke="#6d5639" stroke-width="2" opacity=".42"/>
<path d="M48 53 C230 39 630 40 810 57 L795 268 C594 288 232 286 63 268 Z" fill="#fff4dd" opacity=".28" stroke="#b88935" stroke-width="2"/>

    <g fill="none" stroke-linecap="round" stroke-linejoin="round">
      <path d="M77 237 C147 208 242 205 329 224 C406 240 491 246 579 228 C659 211 744 215 805 240" stroke="#6d5639" stroke-width="3" opacity=".34"/>
      <path d="M94 223 C155 196 234 196 315 213 C411 234 492 231 570 212 C653 191 733 200 790 222" stroke="#6d5639" stroke-width="2" opacity=".26"/>
      <path d="M110 216 L115 125 C140 103 165 97 190 118 L192 214" stroke="#6d5639" stroke-width="4"/>
      <path d="M129 117 C151 67 187 68 212 117 M146 91 C164 75 188 76 203 94" stroke="#6d5639" stroke-width="2.3" opacity=".72"/>
      <path d="M134 147 C152 137 174 137 190 148 M141 170 C153 162 178 162 189 171 M139 195 C156 187 176 189 190 196" stroke="#6d5639" stroke-width="1.7" opacity=".62"/>
      <path d="M228 219 L230 107 C255 78 287 75 315 107 L319 225" stroke="#6d5639" stroke-width="4"/>
      <path d="M240 112 C262 89 288 90 308 113 M255 139 C269 130 291 131 305 142 M254 168 C270 158 292 159 307 170" stroke="#6d5639" stroke-width="1.8" opacity=".62"/>
      <path d="M332 228 L338 92 C370 56 421 57 451 94 L459 232" stroke="#6d5639" stroke-width="4.4"/>
      <path d="M354 96 C383 66 418 67 444 98 M367 131 C388 119 421 121 440 134 M363 166 C391 151 423 154 444 168" stroke="#6d5639" stroke-width="2" opacity=".62"/>
      <path d="M503 232 C524 208 556 205 579 227 M540 221 L544 153 C563 130 592 130 610 153 L613 222" stroke="#6d5639" stroke-width="3.4" opacity=".72"/>
      <path d="M556 153 C575 134 596 136 609 155 M563 179 C579 172 596 173 607 181" stroke="#6d5639" stroke-width="1.6" opacity=".58"/>
      <path d="M625 224 C655 191 714 190 753 224 M675 215 L679 111 C704 74 742 80 762 116 L767 221" stroke="#6d5639" stroke-width="3.8" opacity=".78"/>
      <path d="M691 119 C710 92 742 97 758 121 M700 150 C720 140 744 143 760 153 M700 183 C724 173 747 176 764 186" stroke="#6d5639" stroke-width="1.8" opacity=".58"/>
      <path d="M424 245 C493 230 573 232 640 247" stroke="#b88935" stroke-width="2.2" opacity=".35"/>
      <path d="M529 226 C485 190 496 145 548 110 C590 147 586 196 529 226 Z" fill="#b88935" opacity=".16" stroke="#b88935" stroke-width="3"/>
      <path d="M542 202 C516 176 524 142 552 120 C574 150 569 183 542 202 Z" fill="#c66b38" opacity=".38" stroke="#c66b38" stroke-width="2"/>
      <path d="M508 96 C566 64 671 66 734 99 M487 118 C556 96 679 96 759 121" stroke="#b88935" stroke-width="1.7" opacity=".28"/>
      <path d="M513 255 C553 247 594 248 636 258" stroke="#6d5639" stroke-width="2" opacity=".34"/>
      <path d="M382 222 C397 205 416 204 429 222 M394 219 L397 188 C405 178 416 179 423 190 L425 221" stroke="#6d5639" stroke-width="2.3" opacity=".62"/>
      <path d="M401 188 C410 178 419 180 424 191 M404 202 C413 197 421 199 426 205" stroke="#6d5639" stroke-width="1.2" opacity=".55"/>
      <path d="M456 225 C470 208 488 209 501 225 M467 223 L470 194 C477 184 488 185 495 196 L497 224" stroke="#6d5639" stroke-width="2.2" opacity=".56"/>
      <path d="M703 247 C724 235 755 236 779 249 M732 238 C739 226 754 226 762 239" stroke="#6d5639" stroke-width="1.8" opacity=".38"/>
      <path d="M70 246 C122 232 177 233 229 248 M250 251 C303 239 354 240 405 253" stroke="#6d5639" stroke-width="1.7" opacity=".28"/>
      <path d="M119 231 C122 217 128 207 138 199 C147 208 151 218 149 232 M245 235 C249 220 257 209 268 201 C277 213 279 224 276 236" stroke="#b88935" stroke-width="1.5" opacity=".36"/>
      <path d="M596 240 C618 229 643 230 666 241 M630 233 C637 221 650 222 657 234" stroke="#6d5639" stroke-width="1.7" opacity=".35"/>
    </g>
  
<text x="74" y="265" font-family="Georgia, 'Microsoft YaHei', serif" font-size="25" fill="#6b4c2f" stroke="#f6e2b9" stroke-width=".8">圣火守城</text>
<path d="M70 279 C230 270 430 271 596 278" fill="none" stroke="#b88935" stroke-width="2" opacity=".45"/>
</svg>