<svg xmlns="http://www.w3.org/2000/svg" width="860" height="320" viewBox="0 0 860 320" role="img">

  <defs>
    <filter id="softShadow" x="-25%" y="-25%" width="150%" height="160%">
      <feDropShadow dx="0" dy="8" stdDeviation="5" flood-color="#000000" flood-opacity=".32"/>
    </filter>
    <linearGradient id="inkWash" x1="0" x2="0" y1="0" y2="1">
      <stop offset="0" stop-color="#fff7e5"/>
      <stop offset=".58" stop-color="#f2dfbd"/>
      <stop offset="1" stop-color="#d7bb88"/>
    </linearGradient>
    <linearGradient id="robe" x1="0" x2="1" y1="0" y2="1">
      <stop offset="0" stop-color="#4c4036"/>
      <stop offset=".56" stop-color="#1d1a18"/>
      <stop offset="1" stop-color="#0c0b0b"/>
    </linearGradient>
    <linearGradient id="metal" x1="0" x2="1" y1="0" y2="1">
      <stop offset="0" stop-color="#b9b5a8"/>
      <stop offset=".42" stop-color="#5f6563"/>
      <stop offset="1" stop-color="#15191a"/>
    </linearGradient>
    <radialGradient id="aura" cx="50%" cy="44%" r="60%">
      <stop offset="0" stop-color="#2f6964" stop-opacity=".30"/>
      <stop offset="1" stop-color="#2f6964" stop-opacity="0"/>
    </radialGradient>
  </defs>
<rect width="860" height="320" rx="22" fill="url(#inkWash)"/>
<path d="M24 29 C244 15 582 12 835 28 M31 294 C258 315 598 313 832 292" fill="none" stroke="#6d5639" stroke-width="2" opacity=".42"/>
<path d="M48 53 C230 39 630 40 810 57 L795 268 C594 288 232 286 63 268 Z" fill="#fff4dd" opacity=".28" stroke="#b88935" stroke-width="2"/>

    <g fill="none" stroke-linecap="round" stroke-linejoin="round">
      <path d="M78 238 C166 215 283 211 389 230 C497 249 606 251 790 230" stroke="#6d5639" stroke-width="3" opacity=".33"/>
      <path d="M105 218 C198 189 312 191 405 209 C512 231 632 230 762 207" stroke="#6d5639" stroke-width="2" opacity=".24"/>
      <path d="M138 246 C195 219 265 219 323 247 M535 249 C610 226 697 224 777 247" stroke="#b88935" stroke-width="1.7" opacity=".30"/>
      <path d="M195 230 C219 176 260 145 313 138 C345 168 344 203 309 228" stroke="#6d5639" stroke-width="4"/>
      <path d="M243 135 C246 105 272 83 304 90" stroke="#2f6964" stroke-width="4"/>
      <path d="M242 159 C260 146 291 145 314 160 M236 190 C263 175 299 178 322 193" stroke="#6d5639" stroke-width="1.8" opacity=".58"/>
      <path d="M207 229 C213 206 220 184 233 163 M291 228 C298 203 305 180 316 158" stroke="#6d5639" stroke-width="2" opacity=".55"/>
      <path d="M415 231 L430 104 C450 80 480 80 500 105 L508 233" stroke="#6d5639" stroke-width="4"/>
      <path d="M454 85 C437 116 479 118 454 85 Z" fill="#b88935" opacity=".23" stroke="#b88935" stroke-width="2.6"/>
      <path d="M438 121 C456 105 483 107 499 123 M439 154 C459 144 486 145 504 157 M437 190 C462 177 490 179 508 193" stroke="#6d5639" stroke-width="1.8" opacity=".58"/>
      <path d="M422 231 C438 205 461 190 487 185 C505 198 512 216 508 234" stroke="#6d5639" stroke-width="2.6" opacity=".65"/>
      <path d="M608 226 C631 178 670 151 721 147 C752 171 752 205 722 227" stroke="#6d5639" stroke-width="4"/>
      <path d="M660 144 C666 116 688 96 720 100" stroke="#2f6964" stroke-width="3.4"/>
      <path d="M649 169 C669 154 701 155 725 171 M646 198 C672 184 706 186 730 201" stroke="#6d5639" stroke-width="1.8" opacity=".58"/>
      <path d="M630 226 C635 204 644 181 656 161 M706 227 C714 202 720 181 729 160" stroke="#6d5639" stroke-width="2" opacity=".55"/>
      <path d="M90 126 C197 91 322 94 430 128 C534 160 647 154 765 117" stroke="#2f6964" stroke-width="2" opacity=".22"/>
      <path d="M139 103 C232 74 342 79 435 107" stroke="#b88935" stroke-width="1.5" opacity=".22"/>
    </g>
  
<text x="74" y="265" font-family="Georgia, 'Microsoft YaHei', serif" font-size="25" fill="#6b4c2f" stroke="#f6e2b9" stroke-width=".8">余烬启程</text>
<path d="M70 279 C230 270 430 271 596 278" fill="none" stroke="#2f6964" stroke-width="2" opacity=".45"/>
</svg>