<svg xmlns="http://www.w3.org/2000/svg" width="220" height="80" viewBox="0 0 220 80" role="img">
<defs>
<filter id="softShadow" x="-20%" y="-20%" width="140%" height="150%"><feDropShadow dx="0" dy="8" stdDeviation="6" flood-color="#000000" flood-opacity="0.45"/></filter>
<filter id="glowGold" x="-30%" y="-30%" width="160%" height="160%"><feDropShadow dx="0" dy="0" stdDeviation="5" flood-color="#f2c86d" flood-opacity="0.65"/></filter>
<filter id="greenGlow" x="-30%" y="-30%" width="160%" height="160%"><feDropShadow dx="0" dy="0" stdDeviation="6" flood-color="#5f9f62" flood-opacity="0.7"/></filter>
<linearGradient id="metal" x1="0" x2="1" y1="0" y2="1"><stop offset="0" stop-color="#66777b"/><stop offset="0.45" stop-color="#20282a"/><stop offset="1" stop-color="#0a0d0f"/></linearGradient>
<linearGradient id="paper" x1="0" x2="0" y1="0" y2="1"><stop offset="0" stop-color="#ead39b"/><stop offset="1" stop-color="#b98e4f"/></linearGradient>
<radialGradient id="warmGlow" cx="50%" cy="40%" r="55%"><stop offset="0" stop-color="#f2c86d" stop-opacity=".42"/><stop offset="1" stop-color="#f2c86d" stop-opacity="0"/></radialGradient>
<radialGradient id="poisonGlow" cx="50%" cy="45%" r="55%"><stop offset="0" stop-color="#5f9f62" stop-opacity=".42"/><stop offset="1" stop-color="#5f9f62" stop-opacity="0"/></radialGradient>
</defs>
<rect x="8" y="12" width="204" height="56" rx="8" fill="#050302" opacity=".55"/>
<rect x="12" y="8" width="196" height="56" rx="7" fill="#d8bd8a"/>
<rect x="20" y="16" width="180" height="18" rx="4" fill="#fff" opacity=".06"/>
<rect x="12" y="8" width="196" height="56" rx="7" fill="none" stroke="#b88935" stroke-width="3"/>
<rect x="21" y="17" width="178" height="38" rx="4" fill="none" stroke="#000" opacity=".5"/>
<path d="M26 28 V20 H34 M194 28 V20 H186 M26 44 V52 H34 M194 44 V52 H186" stroke="#b88935" stroke-width="2"/>
</svg>