<svg xmlns="http://www.w3.org/2000/svg" width="1536" height="864" viewBox="0 0 1536 864" role="img">
<defs>
<filter id="softShadow" x="-20%" y="-20%" width="140%" height="150%"><feDropShadow dx="0" dy="8" stdDeviation="6" flood-color="#000000" flood-opacity="0.45"/></filter>
<filter id="glowGold" x="-30%" y="-30%" width="160%" height="160%"><feDropShadow dx="0" dy="0" stdDeviation="5" flood-color="#f2c86d" flood-opacity="0.65"/></filter>
<filter id="greenGlow" x="-30%" y="-30%" width="160%" height="160%"><feDropShadow dx="0" dy="0" stdDeviation="6" flood-color="#5f9f62" flood-opacity="0.7"/></filter>
<linearGradient id="metal" x1="0" x2="1" y1="0" y2="1"><stop offset="0" stop-color="#66777b"/><stop offset="0.45" stop-color="#20282a"/><stop offset="1" stop-color="#0a0d0f"/></linearGradient>
<linearGradient id="paper" x1="0" x2="0" y1="0" y2="1"><stop offset="0" stop-color="#ead39b"/><stop offset="1" stop-color="#b98e4f"/></linearGradient>
<radialGradient id="warmGlow" cx="50%" cy="40%" r="55%"><stop offset="0" stop-color="#f2c86d" stop-opacity=".42"/><stop offset="1" stop-color="#f2c86d" stop-opacity="0"/></radialGradient>
<radialGradient id="poisonGlow" cx="50%" cy="45%" r="55%"><stop offset="0" stop-color="#5f9f62" stop-opacity=".42"/><stop offset="1" stop-color="#5f9f62" stop-opacity="0"/></radialGradient>
<linearGradient id="skyGrad" x1="0" x2="0" y1="0" y2="1"><stop offset="0" stop-color="#1b1424"/><stop offset=".55" stop-color="#271723"/><stop offset="1" stop-color="#3b2018"/></linearGradient>
</defs>
<rect width="1536" height="864" fill="#120d18"/>
<rect width="1536" height="864" fill="url(#skyGrad)"/>
<ellipse cx="600" cy="370" rx="470" ry="92" fill="#f2c86d" opacity=".09"/>
<ellipse cx="1030" cy="160" rx="220" ry="28" fill="#d8bd8a" opacity=".08"/>
<ellipse cx="520" cy="190" rx="280" ry="35" fill="#d8bd8a" opacity=".07"/>
<path d="M0 590 L300 320 L620 590Z" fill="#272338" opacity=".82"/>
<path d="M410 590 L810 260 L1200 590Z" fill="#292538" opacity=".82"/>
<path d="M100 610 L360 370 L650 610Z" fill="#15141d" opacity=".92"/>
<path d="M680 610 L1010 310 L1320 610Z" fill="#11121a" opacity=".94"/>
<path d="M690 548 h46 v-96 l23 -48 l23 48 v96 h32 v-132 l23 -64 l24 64 v132 h58 v-76 l30 -47 l30 47 v76 h44 v-226 l32 -72 l32 72 v226 h42 v-320 l41 -74 l41 74 v320" fill="#08090d" opacity=".95"/>
<rect y="585" width="1536" height="279" fill="#170d0a"/>
<rect y="585" width="1536" height="64" fill="#362017" opacity=".86"/>
<rect x="332" y="132" width="872" height="640" rx="18" fill="#704725"/><rect x="350" y="150" width="836" height="604" rx="14" fill="#d8bd8a"/><path d="M368 176 C480 150 980 156 1160 184 M368 720 C540 747 923 743 1160 715" stroke="#4a2f1d" stroke-width="3" opacity=".18" fill="none"/>
<path d="M112 118 C245 90 392 96 520 122" stroke="#f2c86d" stroke-width="2" opacity=".1" fill="none"/>
<path d="M118 134 H520" stroke="#b88935" stroke-width="1" opacity=".09"/>
<rect x="1055" y="605" width="1" height="1" fill="#b88935" opacity="0.036000000000000004"/>
<rect x="1092" y="658" width="2" height="2" fill="#ffffff" opacity="0.0504"/>
<rect x="1129" y="711" width="3" height="1" fill="#000000" opacity="0.06480000000000001"/>
<rect x="1166" y="764" width="1" height="2" fill="#b88935" opacity="0.0792"/>
<rect x="1203" y="817" width="2" height="1" fill="#ffffff" opacity="0.036000000000000004"/>
<rect x="1240" y="50" width="3" height="2" fill="#000000" opacity="0.0504"/>
<rect x="1277" y="103" width="1" height="1" fill="#b88935" opacity="0.06480000000000001"/>
<rect x="1314" y="156" width="2" height="2" fill="#ffffff" opacity="0.0792"/>
<rect x="1351" y="209" width="3" height="1" fill="#000000" opacity="0.036000000000000004"/>
<rect x="1388" y="262" width="1" height="2" fill="#b88935" opacity="0.0504"/>
<rect x="1425" y="315" width="2" height="1" fill="#ffffff" opacity="0.06480000000000001"/>
<rect x="1462" y="368" width="3" height="2" fill="#000000" opacity="0.0792"/>
<rect x="1499" y="421" width="1" height="1" fill="#b88935" opacity="0.036000000000000004"/>
<rect x="36" y="474" width="2" height="2" fill="#ffffff" opacity="0.0504"/>
<rect x="73" y="527" width="3" height="1" fill="#000000" opacity="0.06480000000000001"/>
<rect x="110" y="580" width="1" height="2" fill="#b88935" opacity="0.0792"/>
<rect x="147" y="633" width="2" height="1" fill="#ffffff" opacity="0.036000000000000004"/>
<rect x="184" y="686" width="3" height="2" fill="#000000" opacity="0.0504"/>
<rect x="221" y="739" width="1" height="1" fill="#b88935" opacity="0.06480000000000001"/>
<rect x="258" y="792" width="2" height="2" fill="#ffffff" opacity="0.0792"/>
<rect x="295" y="25" width="3" height="1" fill="#000000" opacity="0.036000000000000004"/>
<rect x="332" y="78" width="1" height="2" fill="#b88935" opacity="0.0504"/>
<rect x="369" y="131" width="2" height="1" fill="#ffffff" opacity="0.06480000000000001"/>
<rect x="406" y="184" width="3" height="2" fill="#000000" opacity="0.0792"/>
<rect x="443" y="237" width="1" height="1" fill="#b88935" opacity="0.036000000000000004"/>
<rect x="480" y="290" width="2" height="2" fill="#ffffff" opacity="0.0504"/>
<rect x="517" y="343" width="3" height="1" fill="#000000" opacity="0.06480000000000001"/>
<rect x="554" y="396" width="1" height="2" fill="#b88935" opacity="0.0792"/>
<rect x="591" y="449" width="2" height="1" fill="#ffffff" opacity="0.036000000000000004"/>
<rect x="628" y="502" width="3" height="2" fill="#000000" opacity="0.0504"/>
<rect x="665" y="555" width="1" height="1" fill="#b88935" opacity="0.06480000000000001"/>
<rect x="702" y="608" width="2" height="2" fill="#ffffff" opacity="0.0792"/>
<rect x="739" y="661" width="3" height="1" fill="#000000" opacity="0.036000000000000004"/>
<rect x="776" y="714" width="1" height="2" fill="#b88935" opacity="0.0504"/>
<rect x="813" y="767" width="2" height="1" fill="#ffffff" opacity="0.06480000000000001"/>
<rect x="850" y="820" width="3" height="2" fill="#000000" opacity="0.0792"/>
<rect x="887" y="53" width="1" height="1" fill="#b88935" opacity="0.036000000000000004"/>
<rect x="924" y="106" width="2" height="2" fill="#ffffff" opacity="0.0504"/>
</svg>