<svg xmlns="http://www.w3.org/2000/svg" width="360" height="520" viewBox="0 0 360 520" role="img">
<defs>
<filter id="softShadow" x="-20%" y="-20%" width="140%" height="150%"><feDropShadow dx="0" dy="8" stdDeviation="6" flood-color="#000000" flood-opacity="0.45"/></filter>
<filter id="glowGold" x="-30%" y="-30%" width="160%" height="160%"><feDropShadow dx="0" dy="0" stdDeviation="5" flood-color="#f2c86d" flood-opacity="0.65"/></filter>
<filter id="greenGlow" x="-30%" y="-30%" width="160%" height="160%"><feDropShadow dx="0" dy="0" stdDeviation="6" flood-color="#5f9f62" flood-opacity="0.7"/></filter>
<linearGradient id="metal" x1="0" x2="1" y1="0" y2="1"><stop offset="0" stop-color="#66777b"/><stop offset="0.45" stop-color="#20282a"/><stop offset="1" stop-color="#0a0d0f"/></linearGradient>
<linearGradient id="paper" x1="0" x2="0" y1="0" y2="1"><stop offset="0" stop-color="#ead39b"/><stop offset="1" stop-color="#b98e4f"/></linearGradient>
<radialGradient id="warmGlow" cx="50%" cy="40%" r="55%"><stop offset="0" stop-color="#f2c86d" stop-opacity=".42"/><stop offset="1" stop-color="#f2c86d" stop-opacity="0"/></radialGradient>
<radialGradient id="poisonGlow" cx="50%" cy="45%" r="55%"><stop offset="0" stop-color="#5f9f62" stop-opacity=".42"/><stop offset="1" stop-color="#5f9f62" stop-opacity="0"/></radialGradient>
</defs>
<ellipse cx="180" cy="470" rx="112" ry="23" fill="#000" opacity=".38"/>
<circle cx="110" cy="193" r="112" fill="url(#poisonGlow)"/>
<circle cx="240" cy="234" r="88" fill="url(#poisonGlow)"/>
<g filter="url(#softShadow)">
<path d="M95 151 C118 100 163 77 207 91 C246 106 268 150 271 206 L291 451 L74 451Z" fill="#1c130e"/>
<path d="M113 155 L247 155 L271 414 L89 414Z" fill="#543820"/>
<path d="M120 178 L69 428 L134 390 L176 438 L176 184Z" fill="#302015"/>
<path d="M242 177 L294 426 L232 389 L185 438 L184 184Z" fill="#2a1d15"/>
<path d="M86 120 C110 91 150 77 199 82 C240 86 271 103 290 131 L251 143 C211 128 151 127 105 143Z" fill="#1a1714"/>
<path d="M132 68 L226 68 L252 118 L101 118Z" fill="#1a1714"/>
<path d="M149 82 L209 82 L230 116 L126 116Z" fill="#2c241b"/>
<path d="M138 112 C155 83 215 84 234 114 L229 158 L139 158Z" fill="#211d19"/>
<path d="M188 117 C225 117 282 128 310 148 C270 156 226 157 188 146Z" fill="#0b0a09"/>
<path d="M190 124 C230 126 268 132 298 146 C259 146 224 144 192 140Z" fill="#d8bd8a" opacity=".72"/>
<circle cx="162" cy="126" r="9" fill="#d8bd8a"/><circle cx="223" cy="132" r="7" fill="#5f9f62" filter="url(#greenGlow)"/>
<path d="M116 183 L247 183" stroke="#8a6133" stroke-width="12"/>
<path d="M130 211 L232 211 M126 254 L236 254 M121 298 L242 298" stroke="#8a6133" stroke-width="5" opacity=".7"/>
<path d="M82 204 L51 334 L88 352 L119 219Z" fill="#25382d"/>
<path d="M271 205 L310 333 L274 351 L239 219Z" fill="#25382d"/>
<circle cx="79" cy="344" r="12" fill="#d8bd8a"/><circle cx="281" cy="345" r="12" fill="#d8bd8a"/>
<rect x="67" y="248" width="36" height="68" rx="10" fill="#122018" stroke="#b88935" stroke-width="4"/>
<rect x="75" y="261" width="20" height="45" rx="5" fill="#5f9f62" filter="url(#greenGlow)"/>
<path d="M259 320 L304 259 L312 268 L270 333Z" fill="#d8bd8a"/>
<path d="M260 322 L286 343 L278 353 L250 329Z" fill="#1a1110"/>
<rect x="133" y="318" width="16" height="38" rx="4" fill="#5f9f62" stroke="#b88935" stroke-width="3"/>
<rect x="157" y="316" width="16" height="42" rx="4" fill="#2f6484" stroke="#b88935" stroke-width="3"/>
<rect x="181" y="316" width="16" height="39" rx="4" fill="#f2c86d" stroke="#b88935" stroke-width="3"/>
<rect x="205" y="318" width="16" height="37" rx="4" fill="#9e302b" stroke="#b88935" stroke-width="3"/>
<path d="M96 410 C136 430 223 431 267 409" stroke="#0c0807" stroke-width="14" opacity=".45"/>
<path d="M75 370 C111 400 257 401 292 370" stroke="#5f9f62" stroke-width="3" opacity=".38"/>
<circle cx="94" cy="213" r="52" fill="#5f9f62" opacity=".11"/>
<circle cx="260" cy="230" r="43" fill="#5f9f62" opacity=".13"/>
<rect x="239" y="321" width="1" height="1" fill="#b88935" opacity="0.06300000000000001"/>
<rect x="276" y="374" width="2" height="2" fill="#ffffff" opacity="0.08820000000000001"/>
<rect x="313" y="427" width="3" height="1" fill="#000000" opacity="0.11340000000000001"/>
<rect x="26" y="480" width="1" height="2" fill="#b88935" opacity="0.1386"/>
<rect x="63" y="57" width="2" height="1" fill="#ffffff" opacity="0.06300000000000001"/>
<rect x="100" y="110" width="3" height="2" fill="#000000" opacity="0.08820000000000001"/>
<rect x="137" y="163" width="1" height="1" fill="#b88935" opacity="0.11340000000000001"/>
<rect x="174" y="216" width="2" height="2" fill="#ffffff" opacity="0.1386"/>
<rect x="211" y="269" width="3" height="1" fill="#000000" opacity="0.06300000000000001"/>
<rect x="248" y="322" width="1" height="2" fill="#b88935" opacity="0.08820000000000001"/>
<rect x="285" y="375" width="2" height="1" fill="#ffffff" opacity="0.11340000000000001"/>
<rect x="322" y="428" width="3" height="2" fill="#000000" opacity="0.1386"/>
<rect x="35" y="481" width="1" height="1" fill="#b88935" opacity="0.06300000000000001"/>
<rect x="72" y="58" width="2" height="2" fill="#ffffff" opacity="0.08820000000000001"/>
<rect x="109" y="111" width="3" height="1" fill="#000000" opacity="0.11340000000000001"/>
<rect x="146" y="164" width="1" height="2" fill="#b88935" opacity="0.1386"/>
<rect x="183" y="217" width="2" height="1" fill="#ffffff" opacity="0.06300000000000001"/>
<rect x="220" y="270" width="3" height="2" fill="#000000" opacity="0.08820000000000001"/>
<rect x="257" y="323" width="1" height="1" fill="#b88935" opacity="0.11340000000000001"/>
<rect x="294" y="376" width="2" height="2" fill="#ffffff" opacity="0.1386"/>
<rect x="331" y="429" width="3" height="1" fill="#000000" opacity="0.06300000000000001"/>
<rect x="44" y="482" width="1" height="2" fill="#b88935" opacity="0.08820000000000001"/>
<rect x="81" y="59" width="2" height="1" fill="#ffffff" opacity="0.11340000000000001"/>
<rect x="118" y="112" width="3" height="2" fill="#000000" opacity="0.1386"/>
<rect x="155" y="165" width="1" height="1" fill="#b88935" opacity="0.06300000000000001"/>
<rect x="192" y="218" width="2" height="2" fill="#ffffff" opacity="0.08820000000000001"/>
<rect x="229" y="271" width="3" height="1" fill="#000000" opacity="0.11340000000000001"/>
<rect x="266" y="324" width="1" height="2" fill="#b88935" opacity="0.1386"/>
<rect x="303" y="377" width="2" height="1" fill="#ffffff" opacity="0.06300000000000001"/>
<rect x="340" y="430" width="3" height="2" fill="#000000" opacity="0.08820000000000001"/>
<rect x="53" y="483" width="1" height="1" fill="#b88935" opacity="0.11340000000000001"/>
<rect x="90" y="60" width="2" height="2" fill="#ffffff" opacity="0.1386"/>
<rect x="127" y="113" width="3" height="1" fill="#000000" opacity="0.06300000000000001"/>
<rect x="164" y="166" width="1" height="2" fill="#b88935" opacity="0.08820000000000001"/>
<rect x="201" y="219" width="2" height="1" fill="#ffffff" opacity="0.11340000000000001"/>
<rect x="238" y="272" width="3" height="2" fill="#000000" opacity="0.1386"/>
<rect x="275" y="325" width="1" height="1" fill="#b88935" opacity="0.06300000000000001"/>
<rect x="312" y="378" width="2" height="2" fill="#ffffff" opacity="0.08820000000000001"/>
</g>
</svg>