<svg xmlns="http://www.w3.org/2000/svg" width="230" height="280" viewBox="0 0 230 280" role="img">

  <defs>
    <filter id="softShadow" x="-25%" y="-25%" width="150%" height="160%">
      <feDropShadow dx="0" dy="8" stdDeviation="5" flood-color="#000000" flood-opacity=".32"/>
    </filter>
    <linearGradient id="inkWash" x1="0" x2="0" y1="0" y2="1">
      <stop offset="0" stop-color="#fff7e5"/>
      <stop offset=".58" stop-color="#f2dfbd"/>
      <stop offset="1" stop-color="#d7bb88"/>
    </linearGradient>
    <linearGradient id="robe" x1="0" x2="1" y1="0" y2="1">
      <stop offset="0" stop-color="#4c4036"/>
      <stop offset=".56" stop-color="#1d1a18"/>
      <stop offset="1" stop-color="#0c0b0b"/>
    </linearGradient>
    <linearGradient id="metal" x1="0" x2="1" y1="0" y2="1">
      <stop offset="0" stop-color="#b9b5a8"/>
      <stop offset=".42" stop-color="#5f6563"/>
      <stop offset="1" stop-color="#15191a"/>
    </linearGradient>
    <radialGradient id="aura" cx="50%" cy="44%" r="60%">
      <stop offset="0" stop-color="#d6a84d" stop-opacity=".30"/>
      <stop offset="1" stop-color="#d6a84d" stop-opacity="0"/>
    </radialGradient>
  </defs>
<path d="M25 260 C72 272 160 272 205 260" fill="#000" opacity=".24"/>
<g filter="url(#softShadow)">

    <path d="M58 244 L66 82 L91 42 L120 33 L153 72 L174 244 L121 260 Z" fill="url(#robe)"/>
    <path d="M85 235 L92 83 L117 58 L144 83 L152 235 L120 254 Z" fill="#f3e5c9"/>
    <path d="M91 55 C105 38 132 37 148 56 L143 84 L96 84 Z" fill="#ece2d0"/>
    <path d="M96 80 C111 94 130 94 143 80" stroke="#b88935" stroke-width="3" fill="none"/>
    <path d="M72 120 C54 153 47 198 50 240" stroke="#b88935" stroke-width="2" fill="none" opacity=".55"/>
    <path d="M159 117 C176 154 186 206 179 244" stroke="#b88935" stroke-width="2" fill="none" opacity=".55"/>
    <path d="M67 129 C94 151 137 149 166 128" fill="none" stroke="#f6efe0" stroke-width="13" opacity=".82"/>
    <path d="M45 177 C78 178 89 162 98 132" stroke="#1c1a17" stroke-width="16" fill="none" stroke-linecap="round"/>
    <path d="M174 170 C197 144 193 111 184 80" stroke="#4a2d20" stroke-width="9" stroke-linecap="round"/>
    <path d="M184 80 L184 240" stroke="#b88935" stroke-width="5" stroke-linecap="round"/>
    <path d="M170 82 L198 82" stroke="#b88935" stroke-width="4" stroke-linecap="round"/>
    <path d="M184 43 C173 65 196 65 184 43 Z" fill="#f4b45b"/>
    <path d="M108 111 L132 111 M120 98 L120 132" fill="none" stroke="#b88935" stroke-width="2.4" stroke-linecap="round" opacity="0.6"/>
  
</g>
<path d="M33 270 C78 278 150 278 197 270" fill="none" stroke="#b88935" stroke-width="1.8" opacity=".18"/>
</svg>