<svg xmlns="http://www.w3.org/2000/svg" width="360" height="520" viewBox="0 0 360 520" role="img">
<defs>
<filter id="softShadow" x="-20%" y="-20%" width="140%" height="150%"><feDropShadow dx="0" dy="8" stdDeviation="6" flood-color="#000000" flood-opacity="0.45"/></filter>
<filter id="glowGold" x="-30%" y="-30%" width="160%" height="160%"><feDropShadow dx="0" dy="0" stdDeviation="5" flood-color="#f2c86d" flood-opacity="0.65"/></filter>
<filter id="greenGlow" x="-30%" y="-30%" width="160%" height="160%"><feDropShadow dx="0" dy="0" stdDeviation="6" flood-color="#5f9f62" flood-opacity="0.7"/></filter>
<linearGradient id="metal" x1="0" x2="1" y1="0" y2="1"><stop offset="0" stop-color="#66777b"/><stop offset="0.45" stop-color="#20282a"/><stop offset="1" stop-color="#0a0d0f"/></linearGradient>
<linearGradient id="paper" x1="0" x2="0" y1="0" y2="1"><stop offset="0" stop-color="#ead39b"/><stop offset="1" stop-color="#b98e4f"/></linearGradient>
<radialGradient id="warmGlow" cx="50%" cy="40%" r="55%"><stop offset="0" stop-color="#f2c86d" stop-opacity=".42"/><stop offset="1" stop-color="#f2c86d" stop-opacity="0"/></radialGradient>
<radialGradient id="poisonGlow" cx="50%" cy="45%" r="55%"><stop offset="0" stop-color="#5f9f62" stop-opacity=".42"/><stop offset="1" stop-color="#5f9f62" stop-opacity="0"/></radialGradient>
</defs>
<ellipse cx="180" cy="470" rx="104" ry="22" fill="#000" opacity=".38"/>
<circle cx="180" cy="156" r="132" fill="url(#warmGlow)"/>
<g filter="url(#softShadow)">
<path d="M104 176 C120 122 147 91 181 88 C220 92 246 128 256 177 L286 446 L74 446Z" fill="#0e0e11"/>
<path d="M124 166 C138 129 156 110 181 108 C206 111 227 132 239 166 L248 409 L112 409Z" fill="#202126"/>
<path d="M137 178 L180 238 L225 178 L219 376 L141 376Z" fill="#121317"/>
<path d="M138 91 C150 58 213 54 225 91 L219 144 L139 144Z" fill="#f0e6d2"/>
<path d="M122 96 L180 36 L239 96 L220 97 L205 76 L155 76 L140 97Z" fill="#f8efd9"/>
<path d="M142 113 C157 93 204 94 218 114 L211 150 L149 150Z" fill="#151516"/>
<ellipse cx="164" cy="131" rx="5" ry="6" fill="#d9c9a8"/>
<ellipse cx="196" cy="131" rx="5" ry="6" fill="#d9c9a8"/>
<path d="M151 151 C167 165 196 166 211 151" stroke="#2b2520" stroke-width="5" fill="none"/>
<path d="M89 176 L122 188 L112 371 L78 350Z" fill="#15161a"/>
<path d="M238 188 L272 176 L281 350 L247 370Z" fill="#15161a"/>
<circle cx="113" cy="323" r="12" fill="#e8d6b0"/>
<circle cx="248" cy="323" r="12" fill="#e8d6b0"/>
<path d="M112 376 C143 394 214 394 247 376" stroke="#b88935" stroke-width="5" fill="none"/>
<path d="M119 420 L153 420 L148 456 L107 456Z" fill="#0d0d10"/>
<path d="M207 420 L249 420 L256 456 L211 456Z" fill="#0d0d10"/>
<path d="M180 173 L180 307" stroke="#b88935" stroke-width="4"/>
<path d="M158 217 L202 217" stroke="#b88935" stroke-width="4"/>
<circle cx="180" cy="169" r="8" fill="#f2c86d"/>
<path d="M92 365 C134 385 225 386 272 362" fill="none" stroke="#b88935" stroke-width="3" opacity=".65"/>
<path d="M72 398 L116 398 L107 433 L61 433Z" fill="#191a20"/>
<path d="M244 398 L289 398 L302 433 L253 433Z" fill="#191a20"/>
<path d="M271 129 L296 129 L300 381 L266 381Z" fill="#9d7b51"/>
<path d="M261 124 C271 88 293 88 304 124 L296 136 L270 136Z" fill="#f2c86d" filter="url(#glowGold)"/>
<path d="M279 92 C289 111 291 125 282 145 C276 127 270 115 279 92Z" fill="#fff1b5"/>
<circle cx="282" cy="120" r="56" fill="#f2c86d" opacity=".14"/>
<path d="M111 187 C135 215 145 278 137 363" stroke="#ffffff" stroke-width="3" opacity=".08"/>
<path d="M229 188 C215 230 211 303 224 359" stroke="#ffffff" stroke-width="3" opacity=".08"/>
<rect x="154" y="206" width="1" height="1" fill="#b88935" opacity="0.06300000000000001"/>
<rect x="191" y="259" width="2" height="2" fill="#ffffff" opacity="0.08820000000000001"/>
<rect x="228" y="312" width="3" height="1" fill="#000000" opacity="0.11340000000000001"/>
<rect x="265" y="365" width="1" height="2" fill="#b88935" opacity="0.1386"/>
<rect x="302" y="418" width="2" height="1" fill="#ffffff" opacity="0.06300000000000001"/>
<rect x="339" y="471" width="3" height="2" fill="#000000" opacity="0.08820000000000001"/>
<rect x="52" y="48" width="1" height="1" fill="#b88935" opacity="0.11340000000000001"/>
<rect x="89" y="101" width="2" height="2" fill="#ffffff" opacity="0.1386"/>
<rect x="126" y="154" width="3" height="1" fill="#000000" opacity="0.06300000000000001"/>
<rect x="163" y="207" width="1" height="2" fill="#b88935" opacity="0.08820000000000001"/>
<rect x="200" y="260" width="2" height="1" fill="#ffffff" opacity="0.11340000000000001"/>
<rect x="237" y="313" width="3" height="2" fill="#000000" opacity="0.1386"/>
<rect x="274" y="366" width="1" height="1" fill="#b88935" opacity="0.06300000000000001"/>
<rect x="311" y="419" width="2" height="2" fill="#ffffff" opacity="0.08820000000000001"/>
<rect x="24" y="472" width="3" height="1" fill="#000000" opacity="0.11340000000000001"/>
<rect x="61" y="49" width="1" height="2" fill="#b88935" opacity="0.1386"/>
<rect x="98" y="102" width="2" height="1" fill="#ffffff" opacity="0.06300000000000001"/>
<rect x="135" y="155" width="3" height="2" fill="#000000" opacity="0.08820000000000001"/>
<rect x="172" y="208" width="1" height="1" fill="#b88935" opacity="0.11340000000000001"/>
<rect x="209" y="261" width="2" height="2" fill="#ffffff" opacity="0.1386"/>
<rect x="246" y="314" width="3" height="1" fill="#000000" opacity="0.06300000000000001"/>
<rect x="283" y="367" width="1" height="2" fill="#b88935" opacity="0.08820000000000001"/>
<rect x="320" y="420" width="2" height="1" fill="#ffffff" opacity="0.11340000000000001"/>
<rect x="33" y="473" width="3" height="2" fill="#000000" opacity="0.1386"/>
<rect x="70" y="50" width="1" height="1" fill="#b88935" opacity="0.06300000000000001"/>
<rect x="107" y="103" width="2" height="2" fill="#ffffff" opacity="0.08820000000000001"/>
<rect x="144" y="156" width="3" height="1" fill="#000000" opacity="0.11340000000000001"/>
<rect x="181" y="209" width="1" height="2" fill="#b88935" opacity="0.1386"/>
<rect x="218" y="262" width="2" height="1" fill="#ffffff" opacity="0.06300000000000001"/>
<rect x="255" y="315" width="3" height="2" fill="#000000" opacity="0.08820000000000001"/>
<rect x="292" y="368" width="1" height="1" fill="#b88935" opacity="0.11340000000000001"/>
<rect x="329" y="421" width="2" height="2" fill="#ffffff" opacity="0.1386"/>
<rect x="42" y="474" width="3" height="1" fill="#000000" opacity="0.06300000000000001"/>
<rect x="79" y="51" width="1" height="2" fill="#b88935" opacity="0.08820000000000001"/>
<rect x="116" y="104" width="2" height="1" fill="#ffffff" opacity="0.11340000000000001"/>
<rect x="153" y="157" width="3" height="2" fill="#000000" opacity="0.1386"/>
<rect x="190" y="210" width="1" height="1" fill="#b88935" opacity="0.06300000000000001"/>
<rect x="227" y="263" width="2" height="2" fill="#ffffff" opacity="0.08820000000000001"/>
</g>
</svg>