<svg xmlns="http://www.w3.org/2000/svg" width="360" height="520" viewBox="0 0 360 520" role="img">
<defs>
<filter id="softShadow" x="-20%" y="-20%" width="140%" height="150%"><feDropShadow dx="0" dy="8" stdDeviation="6" flood-color="#000000" flood-opacity="0.45"/></filter>
<filter id="glowGold" x="-30%" y="-30%" width="160%" height="160%"><feDropShadow dx="0" dy="0" stdDeviation="5" flood-color="#f2c86d" flood-opacity="0.65"/></filter>
<filter id="greenGlow" x="-30%" y="-30%" width="160%" height="160%"><feDropShadow dx="0" dy="0" stdDeviation="6" flood-color="#5f9f62" flood-opacity="0.7"/></filter>
<linearGradient id="metal" x1="0" x2="1" y1="0" y2="1"><stop offset="0" stop-color="#66777b"/><stop offset="0.45" stop-color="#20282a"/><stop offset="1" stop-color="#0a0d0f"/></linearGradient>
<linearGradient id="paper" x1="0" x2="0" y1="0" y2="1"><stop offset="0" stop-color="#ead39b"/><stop offset="1" stop-color="#b98e4f"/></linearGradient>
<radialGradient id="warmGlow" cx="50%" cy="40%" r="55%"><stop offset="0" stop-color="#f2c86d" stop-opacity=".42"/><stop offset="1" stop-color="#f2c86d" stop-opacity="0"/></radialGradient>
<radialGradient id="poisonGlow" cx="50%" cy="45%" r="55%"><stop offset="0" stop-color="#5f9f62" stop-opacity=".42"/><stop offset="1" stop-color="#5f9f62" stop-opacity="0"/></radialGradient>
</defs>
<rect width="360" height="520" fill="none"/>
<ellipse cx="180" cy="470" rx="112" ry="24" fill="#000" opacity=".42"/>
<g filter="url(#softShadow)">
<path d="M108 116 C78 166 60 257 70 400 C94 357 111 333 135 314 C137 240 133 174 108 116Z" fill="#681f29"/>
<path d="M96 154 L49 309 L77 294 L62 410 L117 352 L145 420 L157 174Z" fill="#8f2530" opacity=".86"/>
<path d="M118 132 C139 116 164 109 187 113 C221 121 243 145 253 177 L238 284 L118 284Z" fill="url(#metal)"/>
<path d="M128 179 L236 179 L229 248 L137 248Z" fill="#11181b"/>
<path d="M145 195 L179 184 L214 195 L207 238 L151 238Z" fill="#45565a"/>
<path d="M135 258 L226 258 L234 310 L126 310Z" fill="#1a2225"/>
<rect x="128" y="284" width="104" height="20" rx="5" fill="#9e302b"/>
<path d="M126 318 L158 318 L151 434 L118 434Z" fill="#0b0e10"/>
<path d="M196 318 L229 318 L242 434 L206 434Z" fill="#0b0e10"/>
<path d="M113 428 L164 428 L156 457 L102 457Z" fill="#11171a"/>
<path d="M199 428 L253 428 L264 456 L207 456Z" fill="#11171a"/>
<path d="M91 179 C99 158 120 148 143 154 L136 216 L88 230Z" fill="#1c2528"/>
<path d="M232 151 C257 148 278 163 286 186 L250 230 L229 205Z" fill="#151d20"/>
<path d="M133 82 C154 52 205 49 228 82 L231 130 L131 130Z" fill="#1b2427"/>
<path d="M116 94 L180 38 L246 95 L225 95 L210 73 L149 73 L133 95Z" fill="#101517"/>
<rect x="142" y="92" width="77" height="18" rx="3" fill="#536469"/>
<rect x="138" y="116" width="86" height="9" rx="2" fill="#b88935"/>
<rect x="151" y="132" width="58" height="12" rx="3" fill="#030405"/>
<path d="M130 131 L111 169 L153 158Z" fill="#101619"/>
<path d="M227 132 L250 170 L207 158Z" fill="#101619"/>
<path d="M61 191 C71 162 103 144 132 155 L126 313 C105 330 80 332 59 309Z" fill="#17262d"/>
<path d="M67 201 C84 178 104 169 125 175 L121 296 C101 310 82 310 65 291Z" fill="#2f6484"/>
<path d="M69 202 L121 296 M69 291 L124 179" stroke="#d8bd8a" stroke-width="4" opacity=".7"/>
<path d="M59 190 C82 166 110 154 133 157 L128 315 C100 337 72 329 56 310Z" fill="none" stroke="#b88935" stroke-width="8"/>
<path d="M257 177 L312 75 L322 83 L269 191Z" fill="#d9d0a5"/>
<path d="M267 188 L299 204 L293 214 L257 199Z" fill="#b88935"/>
<path d="M312 75 L327 55 L323 88Z" fill="#fff2c8"/>
<path d="M257 177 L313 76" stroke="#fff9d9" stroke-width="3" opacity=".72"/>
<path d="M151 161 C167 173 192 173 212 160" fill="none" stroke="#b88935" stroke-width="4" opacity=".72"/>
<circle cx="181" cy="285" r="5" fill="#b88935"/>
<rect x="150" y="316" width="67" height="12" rx="4" fill="#3d2b1b"/>
<path d="M72 333 C101 350 126 343 153 319" fill="none" stroke="#3a1018" stroke-width="12" opacity=".38"/>
<rect x="69" y="91" width="1" height="1" fill="#b88935" opacity="0.06300000000000001"/>
<rect x="106" y="144" width="2" height="2" fill="#ffffff" opacity="0.08820000000000001"/>
<rect x="143" y="197" width="3" height="1" fill="#000000" opacity="0.11340000000000001"/>
<rect x="180" y="250" width="1" height="2" fill="#b88935" opacity="0.1386"/>
<rect x="217" y="303" width="2" height="1" fill="#ffffff" opacity="0.06300000000000001"/>
<rect x="254" y="356" width="3" height="2" fill="#000000" opacity="0.08820000000000001"/>
<rect x="291" y="409" width="1" height="1" fill="#b88935" opacity="0.11340000000000001"/>
<rect x="328" y="462" width="2" height="2" fill="#ffffff" opacity="0.1386"/>
<rect x="41" y="39" width="3" height="1" fill="#000000" opacity="0.06300000000000001"/>
<rect x="78" y="92" width="1" height="2" fill="#b88935" opacity="0.08820000000000001"/>
<rect x="115" y="145" width="2" height="1" fill="#ffffff" opacity="0.11340000000000001"/>
<rect x="152" y="198" width="3" height="2" fill="#000000" opacity="0.1386"/>
<rect x="189" y="251" width="1" height="1" fill="#b88935" opacity="0.06300000000000001"/>
<rect x="226" y="304" width="2" height="2" fill="#ffffff" opacity="0.08820000000000001"/>
<rect x="263" y="357" width="3" height="1" fill="#000000" opacity="0.11340000000000001"/>
<rect x="300" y="410" width="1" height="2" fill="#b88935" opacity="0.1386"/>
<rect x="337" y="463" width="2" height="1" fill="#ffffff" opacity="0.06300000000000001"/>
<rect x="50" y="40" width="3" height="2" fill="#000000" opacity="0.08820000000000001"/>
<rect x="87" y="93" width="1" height="1" fill="#b88935" opacity="0.11340000000000001"/>
<rect x="124" y="146" width="2" height="2" fill="#ffffff" opacity="0.1386"/>
<rect x="161" y="199" width="3" height="1" fill="#000000" opacity="0.06300000000000001"/>
<rect x="198" y="252" width="1" height="2" fill="#b88935" opacity="0.08820000000000001"/>
<rect x="235" y="305" width="2" height="1" fill="#ffffff" opacity="0.11340000000000001"/>
<rect x="272" y="358" width="3" height="2" fill="#000000" opacity="0.1386"/>
<rect x="309" y="411" width="1" height="1" fill="#b88935" opacity="0.06300000000000001"/>
<rect x="22" y="464" width="2" height="2" fill="#ffffff" opacity="0.08820000000000001"/>
<rect x="59" y="41" width="3" height="1" fill="#000000" opacity="0.11340000000000001"/>
<rect x="96" y="94" width="1" height="2" fill="#b88935" opacity="0.1386"/>
<rect x="133" y="147" width="2" height="1" fill="#ffffff" opacity="0.06300000000000001"/>
<rect x="170" y="200" width="3" height="2" fill="#000000" opacity="0.08820000000000001"/>
<rect x="207" y="253" width="1" height="1" fill="#b88935" opacity="0.11340000000000001"/>
<rect x="244" y="306" width="2" height="2" fill="#ffffff" opacity="0.1386"/>
<rect x="281" y="359" width="3" height="1" fill="#000000" opacity="0.06300000000000001"/>
<rect x="318" y="412" width="1" height="2" fill="#b88935" opacity="0.08820000000000001"/>
<rect x="31" y="465" width="2" height="1" fill="#ffffff" opacity="0.11340000000000001"/>
<rect x="68" y="42" width="3" height="2" fill="#000000" opacity="0.1386"/>
<rect x="105" y="95" width="1" height="1" fill="#b88935" opacity="0.06300000000000001"/>
<rect x="142" y="148" width="2" height="2" fill="#ffffff" opacity="0.08820000000000001"/>
</g>
</svg>